<svg width="9" height="10" viewBox="0 0 9 10" fill="none" xmlns="http://www.w3.org/2000/svg">
<path d="M4.12266 9.16671C3.56033 9.16671 3.03187 9.05726 2.53729 8.83837C2.04271 8.61976 1.6125 8.32296 1.24664 7.94796C0.880788 7.57296 0.591222 7.13199 0.377942 6.62504C0.164392 6.1181 0.0576172 5.57643 0.0576172 5.00004C0.0576172 4.42365 0.164392 3.88199 0.377942 3.37504C0.591222 2.8681 0.880788 2.42712 1.24664 2.05212C1.6125 1.67712 2.04271 1.38018 2.53729 1.16129C3.03187 0.94268 3.56033 0.833374 4.12266 0.833374C4.68499 0.833374 5.21344 0.94268 5.70802 1.16129C6.2026 1.38018 6.63282 1.67712 6.99867 2.05212C7.36453 2.42712 7.65409 2.8681 7.86737 3.37504C8.08092 3.88199 8.1877 4.42365 8.1877 5.00004C8.1877 5.57643 8.08092 6.1181 7.86737 6.62504C7.65409 7.13199 7.36453 7.57296 6.99867 7.94796C6.63282 8.32296 6.2026 8.61976 5.70802 8.83837C5.21344 9.05726 4.68499 9.16671 4.12266 9.16671ZM2.65924 7.08337L4.12266 5.58337L5.58607 7.08337L6.15518 6.50004L4.69176 5.00004L6.15518 3.50004L5.58607 2.91671L4.12266 4.41671L2.65924 2.91671L2.09014 3.50004L3.55355 5.00004L2.09014 6.50004L2.65924 7.08337Z" fill="black"/>
</svg>
