<svg width="170" height="44" viewBox="0 0 170 44" fill="none" xmlns="http://www.w3.org/2000/svg">
<path d="M116.266 7.71238C111.19 6.88511 106.013 7.39748 100.889 7.47754C98.824 7.50957 96.956 9.36692 96.6731 11.4378C96.2515 14.544 96.3155 17.6983 96.6197 20.8152C96.8172 22.8487 98.5518 24.0923 100.559 24.0069C102.432 23.9268 103.969 22.5658 104.22 20.6658C104.332 19.8118 104.257 18.9365 104.279 18.0666C104.332 15.889 105.41 14.7522 107.598 14.6828C109.333 14.6241 111.068 14.6401 112.802 14.6774C117.136 14.7628 120.248 17.5542 120.29 21.3703C120.333 25.2825 117.392 27.9351 112.882 28.0045C108.282 28.0739 103.681 28.1165 99.0802 28.1432C95.3708 28.1646 94.741 27.6362 93.8444 24.103C92.6862 19.5236 91.512 14.955 90.3005 10.3917C89.7988 8.50229 88.6406 7.22136 86.5964 6.98118C84.563 6.74101 83.0579 7.63232 82.1719 9.3936C79.4552 14.7895 76.5358 20.0894 74.2034 25.6774C73.2374 24.7007 72.9812 23.3184 72.2286 22.2136C71.396 19.9559 70.1845 17.8851 68.989 15.8089C67.9856 13.199 66.7794 10.7012 65.0981 8.45425C64.2015 7.16265 62.9472 6.78904 61.4528 7.05056C59.2912 7.24804 58.1918 8.55032 57.7808 10.5731C56.628 14.0797 55.7206 17.6556 54.9948 21.2796C54.6318 22.4538 54.1889 23.6119 53.9167 24.8075C53.6178 26.1364 53.2121 27.3266 51.8245 27.887C48.0564 27.9084 44.2883 27.9404 40.5202 27.9458C38.284 27.9511 36.021 28.1646 33.8541 27.364C30.1767 24.9516 29.7177 22.347 30.609 19.0379C30.8012 18.3174 31.5644 17.8851 31.4577 17.0685C32.413 16.7536 33.0588 15.9904 33.8327 15.4193C35.6474 14.7682 37.5421 14.6721 39.4368 14.5867C41.4383 14.5867 43.4397 14.5867 45.4412 14.5867C46.3645 14.6134 47.2932 14.7041 48.2058 14.6454C50.1646 14.5227 51.4722 13.0923 51.5149 11.1442C51.5576 9.12674 50.2126 7.56827 48.2112 7.41883C47.2932 7.34945 46.3645 7.44552 45.4412 7.46687C43.4397 7.46687 41.4383 7.46687 39.4368 7.46687C37.4193 7.3281 35.4019 7.28006 33.4324 7.8725C32.5678 7.9312 31.7672 8.19273 31.0253 8.63572C30.2461 8.68909 29.6537 9.14809 29.0346 9.54838C20.3456 14.4213 20.3456 27.4601 29.0346 32.8987C30.3742 33.7793 31.7726 34.5212 33.4111 34.6813C33.5872 34.7721 33.758 34.9215 33.9395 34.9375C41.5076 35.5993 49.0972 35.2738 56.676 35.2471C56.7881 35.2471 56.9002 35.1136 57.0122 35.0443C58.2878 34.7133 59.1151 33.9448 59.3606 32.6212C59.4834 32.0554 59.5848 31.4843 59.7289 30.9239C60.6576 27.3747 61.7303 23.8628 62.2214 20.2121C62.4562 19.7264 62.0452 18.9632 62.8832 18.7337C63.3155 19.5236 63.7585 20.3296 64.1961 21.1301C65.2476 23.8308 66.4484 26.4567 67.8681 28.9865C68.7648 30.9773 69.2718 33.1869 71.0331 34.6973C72.2073 35.8822 73.563 35.9996 74.9987 35.5886C75.1481 35.562 75.3082 35.5193 75.4737 35.4392C76.6158 35.3485 77.2563 34.5372 77.7367 33.6779C78.5426 32.2315 79.2257 30.7104 79.9302 29.2053C81.5741 25.7095 83.2073 22.2083 84.9686 18.4455C86.0093 22.8434 86.954 26.9264 87.9414 30.9986C88.6406 33.8701 90.2044 35.2204 92.9477 35.2311C99.9501 35.2631 106.958 35.3325 113.96 35.215C121.256 35.0923 127.293 29.611 127.88 22.806C128.558 14.9016 124.16 9.00398 116.266 7.71238Z" fill="#FFBC23"/>
<path d="M10.9894 35.8288L2.50854 21.3596L10.9947 6.89575H19.9826L11.4537 21.3596L19.9826 35.8235H10.9894V35.8288Z" fill="#142544"/>
<path d="M158.168 7.42944L166.655 21.8933L158.168 36.3571H149.18L157.709 21.8933L149.18 7.42944H158.168Z" fill="#142544"/>
<path d="M149.079 3.43714L129.588 40.9578L122.809 39.5167L142.301 1.99609L149.079 3.43714Z" fill="#142544"/>
</svg>
