<svg width="12" height="16" viewBox="0 0 12 16" fill="none" xmlns="http://www.w3.org/2000/svg">
<circle cx="6" cy="7.5" r="5.6" stroke="#FF0000" stroke-width="0.8"/>
<path d="M6.6416 4.60156L6.51416 9.07959H5.53418L5.40674 4.60156H6.6416ZM5.37158 10.4595C5.37158 10.2866 5.43018 10.1416 5.54736 10.0244C5.66748 9.9043 5.82861 9.84424 6.03076 9.84424C6.23291 9.84424 6.39258 9.9043 6.50977 10.0244C6.62988 10.1416 6.68994 10.2866 6.68994 10.4595C6.68994 10.6294 6.62988 10.7729 6.50977 10.8901C6.39258 11.0073 6.23291 11.0659 6.03076 11.0659C5.82861 11.0659 5.66748 11.0073 5.54736 10.8901C5.43018 10.7729 5.37158 10.6294 5.37158 10.4595Z" fill="#FF0000"/>
</svg>
