<svg width="37" height="37" viewBox="0 0 37 37" fill="none" xmlns="http://www.w3.org/2000/svg">
<path fill-rule="evenodd" clip-rule="evenodd" d="M18.5 0C8.27875 0 0 8.27875 0 18.5C0 26.6862 5.29562 33.6006 12.6494 36.0519C13.5744 36.2137 13.9212 35.6587 13.9212 35.1731C13.9212 34.7337 13.8981 33.2769 13.8981 31.7275C9.25 32.5831 8.0475 30.5944 7.6775 29.5537C7.46937 29.0219 6.5675 27.38 5.78125 26.9406C5.13375 26.5938 4.20875 25.7381 5.75812 25.715C7.215 25.6919 8.25562 27.0562 8.6025 27.6112C10.2675 30.4094 12.9269 29.6231 13.9906 29.1375C14.1525 27.935 14.6381 27.1256 15.17 26.6631C11.0538 26.2006 6.7525 24.605 6.7525 17.5287C6.7525 15.5169 7.46938 13.8519 8.64875 12.5569C8.46375 12.0944 7.81625 10.1981 8.83375 7.65438C8.83375 7.65438 10.3831 7.16875 13.9212 9.55062C15.4012 9.13437 16.9737 8.92625 18.5462 8.92625C20.1187 8.92625 21.6912 9.13437 23.1712 9.55062C26.7094 7.14563 28.2587 7.65438 28.2587 7.65438C29.2762 10.1981 28.6287 12.0944 28.4438 12.5569C29.6231 13.8519 30.34 15.4937 30.34 17.5287C30.34 24.6281 26.0156 26.2006 21.8994 26.6631C22.57 27.2412 23.1481 28.3512 23.1481 30.0856C23.1481 32.56 23.125 34.5488 23.125 35.1731C23.125 35.6587 23.4719 36.2369 24.3969 36.0519C28.0694 34.8119 31.2606 32.4516 33.5215 29.303C35.7823 26.1545 36.9989 22.3762 37 18.5C37 8.27875 28.7212 0 18.5 0Z" fill="#211F1F"/>
</svg>
