<svg width="36" height="30" viewBox="0 0 36 30" fill="none" xmlns="http://www.w3.org/2000/svg">
<path d="M34.0817 0.678652C33.6833 0.399931 33.234 0.202419 32.7593 0.0973982C32.2846 -0.00762303 31.7938 -0.0180961 31.3151 0.066578C30.8364 0.151252 30.379 0.329414 29.9691 0.590886C29.5593 0.852358 29.2049 1.19202 28.9263 1.59046L14.8526 21.6897L5.62478 15.3863C4.88468 14.8801 3.97378 14.6886 3.09247 14.8539C2.21116 15.0193 1.43163 15.528 0.925377 16.2681C0.419121 17.0082 0.227604 17.9191 0.392958 18.8004C0.558312 19.6817 1.06699 20.4612 1.8071 20.9675L14.1765 29.4162C14.5574 29.6763 14.988 29.8549 15.4411 29.9409C15.8943 30.027 16.3603 30.0186 16.8101 29.9163C17.2898 29.8324 17.7483 29.6547 18.1592 29.3933C18.5701 29.1319 18.9254 28.792 19.2047 28.393L34.994 5.83678C35.5568 5.03134 35.7767 4.03543 35.6055 3.06791C35.4343 2.1004 34.886 1.24042 34.0811 0.676964" fill="#FFBC23"/>
</svg>
