<svg width="18" height="11" viewBox="0 0 18 11" fill="none" xmlns="http://www.w3.org/2000/svg">
<path d="M8.99988 3.50374C9.43768 3.50374 9.87119 3.58997 10.2757 3.75751C10.6801 3.92504 11.0476 4.17061 11.3572 4.48017C11.6668 4.78974 11.9123 5.15725 12.0799 5.56172C12.2474 5.96619 12.3336 6.3997 12.3336 6.83749C12.3336 7.27528 12.2474 7.70879 12.0799 8.11326C11.9123 8.51773 11.6668 8.88524 11.3572 9.19481C11.0476 9.50437 10.6801 9.74994 10.2757 9.91747C9.87119 10.085 9.43768 10.1712 8.99988 10.1712C8.11572 10.1712 7.26777 9.82001 6.64257 9.19481C6.01737 8.56961 5.66613 7.72166 5.66613 6.83749C5.66613 5.95332 6.01737 5.10537 6.64257 4.48017C7.26777 3.85497 8.11572 3.50374 8.99988 3.50374ZM8.99988 4.75374C8.44724 4.75374 7.91723 4.97328 7.52645 5.36406C7.13567 5.75483 6.91613 6.28485 6.91613 6.83749C6.91613 7.39013 7.13567 7.92015 7.52645 8.31092C7.91723 8.7017 8.44724 8.92124 8.99988 8.92124C9.55253 8.92124 10.0825 8.7017 10.4733 8.31092C10.8641 7.92015 11.0836 7.39013 11.0836 6.83749C11.0836 6.28485 10.8641 5.75483 10.4733 5.36406C10.0825 4.97328 9.55253 4.75374 8.99988 4.75374ZM8.99988 0.58374C12.8449 0.58374 16.1624 3.20874 17.0836 6.88749C17.1057 6.96782 17.1114 7.05174 17.1005 7.13432C17.0897 7.2169 17.0624 7.29648 17.0204 7.36838C16.9783 7.44027 16.9223 7.50303 16.8556 7.55297C16.789 7.60292 16.713 7.63903 16.6322 7.65919C16.5514 7.67936 16.4673 7.68316 16.385 7.67038C16.3027 7.65761 16.2238 7.62851 16.1529 7.58479C16.082 7.54108 16.0205 7.48364 15.9722 7.41584C15.9238 7.34804 15.8894 7.27125 15.8711 7.18999C15.4844 5.66033 14.5982 4.30347 13.3531 3.33437C12.108 2.36527 10.5751 1.83935 8.99731 1.83992C7.41951 1.84049 5.88701 2.36753 4.64261 3.33754C3.39821 4.30755 2.51305 5.66505 2.12738 7.19499C2.08615 7.35474 1.98342 7.49171 1.8416 7.57602C1.69978 7.66033 1.53038 7.68514 1.37034 7.64505C1.2103 7.60496 1.0726 7.50321 0.98728 7.362C0.901959 7.22079 0.875935 7.05156 0.914884 6.89124C1.367 5.08931 2.40808 3.49004 3.87284 2.34731C5.3376 1.20458 7.1421 0.583878 8.99988 0.58374Z" fill="black" fill-opacity="0.5"/>
</svg>
