<svg width="20" height="20" viewBox="0 0 20 20" fill="none" xmlns="http://www.w3.org/2000/svg">
<path d="M2.85366 2.14602C2.80717 2.09953 2.75198 2.06266 2.69124 2.0375C2.6305 2.01234 2.5654 1.99939 2.49966 1.99939C2.43391 1.99939 2.36881 2.01234 2.30807 2.0375C2.24733 2.06266 2.19214 2.09953 2.14565 2.14602C2.09917 2.19251 2.06229 2.2477 2.03713 2.30844C2.01197 2.36918 1.99902 2.43428 1.99902 2.50002C1.99902 2.56577 2.01197 2.63087 2.03713 2.6916C2.06229 2.75234 2.09917 2.80753 2.14565 2.85402L5.64565 6.35202C3.91223 7.53435 2.70546 9.34342 2.27965 11.398C2.26626 11.4624 2.26567 11.5287 2.27792 11.5933C2.29017 11.6579 2.31502 11.7194 2.35105 11.7744C2.38708 11.8294 2.43358 11.8767 2.4879 11.9137C2.54223 11.9507 2.60331 11.9766 2.66765 11.99C2.732 12.0034 2.79836 12.004 2.86293 11.9918C2.92751 11.9795 2.98904 11.9547 3.04401 11.9186C3.09898 11.8826 3.14632 11.8361 3.18332 11.7818C3.22032 11.7274 3.24626 11.6664 3.25965 11.602C3.45042 10.6786 3.82347 9.80249 4.35697 9.025C4.89046 8.2475 5.57369 7.58424 6.36666 7.07402L7.95265 8.66002C7.54143 8.95655 7.19953 9.33888 6.95061 9.78056C6.7017 10.2222 6.55171 10.7127 6.51102 11.2181C6.47034 11.7234 6.53993 12.2316 6.71498 12.7074C6.89003 13.1832 7.16637 13.6153 7.52486 13.9738C7.88336 14.3323 8.31546 14.6086 8.79127 14.7837C9.26708 14.9587 9.77524 15.0283 10.2806 14.9877C10.786 14.947 11.2764 14.797 11.7181 14.5481C12.1598 14.2992 12.5421 13.9573 12.8387 13.546L17.1457 17.854C17.2395 17.9479 17.3669 18.0007 17.4997 18.0007C17.6324 18.0007 17.7598 17.9479 17.8537 17.854C17.9475 17.7601 18.0003 17.6328 18.0003 17.5C18.0003 17.3672 17.9475 17.2399 17.8537 17.146L2.85366 2.14602ZM12.1187 12.826C11.9191 13.1445 11.6503 13.4138 11.3322 13.614C11.0142 13.8142 10.6551 13.9402 10.2817 13.9825C9.90823 14.0247 9.53007 13.9823 9.17531 13.8583C8.82055 13.7343 8.49832 13.5318 8.23258 13.2661C7.96684 13.0004 7.76443 12.6781 7.6404 12.3234C7.51638 11.9686 7.47393 11.5904 7.51622 11.217C7.55851 10.8436 7.68445 10.4845 7.88466 10.1665C8.08488 9.84842 8.35422 9.57961 8.67266 9.38002L12.1187 12.827V12.826Z" fill="black" fill-opacity="0.5"/>
<path d="M10.123 8.00195L13.498 11.376C13.4667 10.4911 13.1012 9.65098 12.4751 9.02489C11.849 8.3988 11.0089 8.03327 10.124 8.00195H10.123Z" fill="black" fill-opacity="0.5"/>
<path d="M10.0002 6C9.43025 6 8.87125 6.074 8.33425 6.213L7.53125 5.41C8.32615 5.13868 9.16032 5.00016 10.0002 5C13.6932 5 16.9422 7.673 17.7202 11.398C17.7473 11.528 17.7216 11.6633 17.6489 11.7744C17.5761 11.8854 17.4622 11.9629 17.3323 11.99C17.2023 12.0171 17.0669 11.9914 16.9559 11.9186C16.8449 11.8458 16.7673 11.732 16.7402 11.602C16.0582 8.327 13.2072 6 10.0002 6Z" fill="black" fill-opacity="0.5"/>
</svg>
